<svg viewBox="0 0 16 16" fill="none" xmlns="http://www.w3.org/2000/svg">
    <!-- Wrench icon for advanced tools/settings -->
    <path d="M15.84 13.5l-6.72-6.72c0.48-1.12 0.4-2.48-0.48-3.44-0.96-0.96-2.32-1.04-3.44-0.48L8.16 5.84 5.84 8.16 2.88 5.2c-0.56 1.12-0.48 2.48 0.48 3.44 0.96 0.88 2.32 0.96 3.44 0.48l6.72 6.72c0.32 0.32 0.8 0.32 1.12 0l1.2-1.2c0.32-0.32 0.32-0.8 0-1.12z" fill="#D9D9D9"/>

    <!-- Code brackets to indicate advanced functionality -->
    <path d="M5.5 2L3 4.5L5.5 7" stroke="#D9D9D9" stroke-width="1.5" stroke-linecap="round" stroke-linejoin="round"/>
    <path d="M10.5 2L13 4.5L10.5 7" stroke="#D9D9D9" stroke-width="1.5" stroke-linecap="round" stroke-linejoin="round"/>
</svg>